<?xml version="1.0" encoding="UTF-8" standalone="no"?>
<!-- Created with Inkscape (http://www.inkscape.org/) -->

<svg
   id="svg12512"
   sodipodi:docname="logo-square.svg"
   viewBox="0 0 640 640.00001"
   version="1.1"
   inkscape:version="1.1.1 (c3084ef, 2021-09-22)"
   width="640"
   height="640"
   inkscape:export-filename="/Users/kde/Downloads/logo-light-mode.png"
   inkscape:export-xdpi="96"
   inkscape:export-ydpi="96"
   xmlns:inkscape="http://www.inkscape.org/namespaces/inkscape"
   xmlns:sodipodi="http://sodipodi.sourceforge.net/DTD/sodipodi-0.dtd"
   xmlns="http://www.w3.org/2000/svg"
   xmlns:svg="http://www.w3.org/2000/svg"
   xmlns:rdf="http://www.w3.org/1999/02/22-rdf-syntax-ns#"
   xmlns:cc="http://creativecommons.org/ns#"
   xmlns:dc="http://purl.org/dc/elements/1.1/">
  <defs
     id="defs155" />
  <sodipodi:namedview
     id="base"
     fit-margin-left="32"
     inkscape:zoom="0.68111408"
     borderopacity="1.0"
     inkscape:current-layer="layer1"
     inkscape:cx="378.79117"
     inkscape:cy="316.3934"
     inkscape:window-maximized="0"
     showgrid="false"
     fit-margin-right="32"
     showguides="true"
     bordercolor="#666666"
     inkscape:window-x="0"
     inkscape:guide-bbox="true"
     inkscape:window-y="745"
     fit-margin-bottom="32"
     inkscape:window-width="1440"
     inkscape:pageopacity="0.0"
     inkscape:pageshadow="2"
     pagecolor="#ffffff"
     inkscape:document-units="px"
     inkscape:window-height="847"
     fit-margin-top="32"
     inkscape:pagecheckerboard="true"
     width="640px"
     height="640px">
    <inkscape:grid
       id="grid12520"
       spacingx="2px"
       enabled="false"
       spacingy="2px"
       visible="true"
       snapvisiblegridlinesonly="true"
       type="xygrid"
       empspacing="8" />
    <inkscape:grid
       id="grid12538"
       enabled="true"
       visible="true"
       snapvisiblegridlinesonly="true"
       units="mm"
       type="axonomgrid"
       empspacing="5" />
  </sodipodi:namedview>
  <g
     id="layer1"
     inkscape:label="Capa 1"
     inkscape:groupmode="layer"
     transform="translate(-196.15,-408.9)">
    <g
       id="g19383"
       transform="matrix(0.83348591,0,0,0.83348591,84.65385,9.385859)"
       style="fill:#d3d3f6;fill-opacity:1;stroke:#534d73;stroke-opacity:1">
      <path
         id="path12540"
         style="fill:#d3d3f6;fill-opacity:1;fill-rule:evenodd;stroke:#534d73;stroke-width:15.3939;stroke-linecap:round;stroke-linejoin:round;stroke-opacity:1"
         inkscape:connector-curvature="0"
         d="m 389.53749,667.01506 118.58031,67.90401 v 135.80415 l -118.58031,-67.904 z" />
      <path
         id="path12542"
         style="fill:#d3d3f6;fill-opacity:1;fill-rule:evenodd;stroke:#534d73;stroke-width:15.3939;stroke-linecap:round;stroke-linejoin:round;stroke-opacity:1"
         inkscape:connector-curvature="0"
         d="M 508.09462,734.89223 626.67493,666.98824 V 802.7924 l -118.58031,67.90399 z" />
      <path
         id="path12548"
         sodipodi:nodetypes="ccccc"
         style="fill:#d3d3f6;fill-opacity:1;fill-rule:evenodd;stroke:#534d73;stroke-width:15.3939;stroke-linecap:round;stroke-linejoin:round;stroke-opacity:1"
         inkscape:connector-curvature="0"
         d="m 626.69039,667.01506 -118.58032,-67.90399 47.43058,-27.16083 118.58032,67.904 z" />
      <path
         id="path12550"
         sodipodi:nodetypes="ccccc"
         style="fill:#d3d3f6;fill-opacity:1;fill-rule:evenodd;stroke:#534d73;stroke-width:15.3939;stroke-linecap:round;stroke-linejoin:round;stroke-opacity:1"
         inkscape:connector-curvature="0"
         d="m 508.09462,734.89223 -47.43058,27.16083 -118.58031,-67.90399 47.43058,-27.16083 z" />
      <path
         id="path13068"
         style="fill:#d3d3f6;fill-opacity:1;fill-rule:evenodd;stroke:#534d73;stroke-width:15.3939;stroke-linecap:round;stroke-linejoin:round;stroke-opacity:1"
         inkscape:connector-curvature="0"
         d="m 508.09462,734.89223 118.58031,-67.90399 47.43058,27.16083 -118.58031,67.90399 z" />
      <path
         id="path13070"
         d="m 342.08373,639.84121 118.58031,-67.904 47.43058,27.16084 -118.58031,67.90399 z"
         style="fill:#d3d3f6;fill-opacity:1;fill-rule:evenodd;stroke:#534d73;stroke-width:15.3939;stroke-linecap:round;stroke-linejoin:round;stroke-opacity:1"
         inkscape:connector-curvature="0" />
      <path
         id="path13429"
         sodipodi:nodetypes="ccccc"
         style="fill:#d3d3f6;fill-opacity:1;stroke:#534d73;stroke-width:15.3939;stroke-linecap:round;stroke-linejoin:round;stroke-opacity:1"
         inkscape:connector-curvature="0"
         d="m 508.09462,626.27344 -35.5741,20.37082 35.5741,20.3708 35.5741,-20.3708 z" />
      <path
         id="path13431"
         sodipodi:nodetypes="ccccc"
         style="fill:#d3d3f6;fill-opacity:1;stroke:#534d73;stroke-width:15.3939;stroke-linecap:round;stroke-linejoin:round;stroke-opacity:1"
         inkscape:connector-curvature="0"
         d="m 508.09462,667.01506 v 40.74164 l -35.5741,-20.37082 v -40.74162 z" />
      <path
         id="path13433"
         sodipodi:nodetypes="ccccc"
         d="m 508.09462,667.01506 4e-5,40.74164 35.57409,-20.37082 v -40.74162 z"
         style="fill:#d3d3f6;fill-opacity:1;stroke:#534d73;stroke-width:15.3939;stroke-linecap:round;stroke-linejoin:round;stroke-opacity:1"
         inkscape:connector-curvature="0" />
      <path
         id="path13429-7"
         sodipodi:nodetypes="ccccc"
         style="fill:#d3d3f6;fill-opacity:1;stroke:#534d73;stroke-width:15.3939;stroke-linecap:round;stroke-linejoin:round;stroke-opacity:1"
         inkscape:connector-curvature="0"
         d="m 401.40093,768.84998 -35.57409,20.37082 35.57409,20.37081 35.57409,-20.37081 z" />
      <path
         id="path13431-4"
         sodipodi:nodetypes="ccccc"
         style="fill:#d3d3f6;fill-opacity:1;stroke:#534d73;stroke-width:15.3939;stroke-linecap:round;stroke-linejoin:round;stroke-opacity:1"
         inkscape:connector-curvature="0"
         d="m 401.40093,809.59161 v 40.74163 L 365.82684,829.96243 V 789.2208 Z" />
      <path
         id="path13433-7"
         sodipodi:nodetypes="ccccc"
         d="m 401.40093,809.59161 4e-5,40.74163 35.57409,-20.37081 V 789.2208 Z"
         style="fill:#d3d3f6;fill-opacity:1;stroke:#534d73;stroke-width:15.3939;stroke-linecap:round;stroke-linejoin:round;stroke-opacity:1"
         inkscape:connector-curvature="0" />
      <path
         id="path13514"
         d="m 602.96351,802.80773 -35.5741,20.37081 35.5741,20.37082 35.57409,-20.37082 z"
         sodipodi:nodetypes="ccccc"
         style="fill:#d3d3f6;fill-opacity:1;stroke:#534d73;stroke-width:15.3939;stroke-linecap:round;stroke-linejoin:round;stroke-opacity:1"
         inkscape:connector-curvature="0" />
      <path
         id="path13516"
         d="m 602.96351,843.54936 v 40.74162 l -35.5741,-20.37081 v -40.74163 z"
         sodipodi:nodetypes="ccccc"
         style="fill:#d3d3f6;fill-opacity:1;stroke:#534d73;stroke-width:15.3939;stroke-linecap:round;stroke-linejoin:round;stroke-opacity:1"
         inkscape:connector-curvature="0" />
      <path
         id="path13518"
         sodipodi:nodetypes="ccccc"
         inkscape:connector-curvature="0"
         style="fill:#d3d3f6;fill-opacity:1;stroke:#534d73;stroke-width:15.3939;stroke-linecap:round;stroke-linejoin:round;stroke-opacity:1"
         d="m 602.96351,843.54936 3e-5,40.74162 35.5741,-20.37081 v -40.74163 z" />
    </g>
    <g
       aria-label="mpm"
       id="text1137"
       style="font-size:177.81px;line-height:1.25;fill:#2d2364;stroke-width:0.833486">
      <path
         d="m 382.61748,927.52661 h -29.51646 v -74.14677 q 0,-6.04554 -4.44525,-10.31298 -4.26744,-4.44525 -10.49079,-4.44525 -6.04554,0 -10.49079,4.44525 -4.26744,4.26744 -4.26744,10.31298 v 74.14677 H 293.71248 V 823.86338 h 29.69427 v 14.75823 q 0.88905,-7.46802 4.62306,-11.02422 3.73401,-3.73401 10.13517,-3.73401 h 14.93604 q 15.11385,0 22.22625,10.49079 3.5562,-5.3343 9.06831,-7.82364 5.51211,-2.66715 13.15794,-2.66715 h 14.75823 q 12.09108,0 20.80377,8.71269 8.8905,8.71269 8.8905,20.80377 v 74.14677 h -29.69427 v -74.14677 q 0,-5.86773 -4.44525,-10.31298 -4.26744,-4.44525 -10.31298,-4.44525 -6.04554,0 -10.49079,4.44525 -4.44525,4.26744 -4.44525,10.31298 z"
         style="font-family:Silom;-inkscape-font-specification:Silom"
         id="path116" />
      <path
         d="m 471.52248,823.86338 h 29.69427 v 14.75823 q 0,-7.46802 3.73401,-11.02422 3.73401,-3.73401 11.02422,-3.73401 h 14.93604 q 12.09108,0 20.80377,8.71269 8.71269,8.71269 8.71269,20.80377 v 44.4525 q 0,12.26889 -8.71269,20.98158 -8.71269,8.71269 -20.80377,8.71269 h -29.69427 v 29.69427 h -29.69427 z m 29.69427,88.905 h 14.75823 q 6.22335,0 10.49079,-4.26744 4.44525,-4.44525 4.44525,-10.6686 v -44.4525 q 0,-6.04554 -4.44525,-10.31298 -4.26744,-4.44525 -10.49079,-4.44525 -6.04554,0 -10.49079,4.44525 -4.26744,4.26744 -4.26744,10.31298 z"
         style="font-family:Silom;-inkscape-font-specification:Silom"
         id="path118" />
      <path
         d="m 679.199,927.52661 h -29.51646 v -74.14677 q 0,-6.04554 -4.44525,-10.31298 -4.26744,-4.44525 -10.49079,-4.44525 -6.04554,0 -10.49079,4.44525 -4.26744,4.26744 -4.26744,10.31298 v 74.14677 H 590.294 V 823.86338 h 29.69427 v 14.75823 q 0.88905,-7.46802 4.62306,-11.02422 3.73401,-3.73401 10.13517,-3.73401 h 14.93604 q 15.11385,0 22.22625,10.49079 3.5562,-5.3343 9.06831,-7.82364 5.51211,-2.66715 13.15793,-2.66715 h 14.75823 q 12.09108,0 20.80377,8.71269 8.8905,8.71269 8.8905,20.80377 v 74.14677 h -29.69427 v -74.14677 q 0,-5.86773 -4.44525,-10.31298 -4.26744,-4.44525 -10.31298,-4.44525 -6.04553,0 -10.49078,4.44525 -4.44525,4.26744 -4.44525,10.31298 z"
         style="font-family:Silom;-inkscape-font-specification:Silom"
         id="path120" />
    </g>
    <g
       aria-label="Meta  Package  Manager"
       id="text14169"
       style="font-size:31.1168px;line-height:1.25;font-family:Silom;-inkscape-font-specification:Silom;letter-spacing:1.66697px;fill:#534d73;stroke-width:0.833486">
      <path
         d="m 293.51589,1003.5771 v -23.33761 h 1.21356 l 11.07758,11.04646 11.04646,-11.04646 h 2.61381 v 23.33761 h -5.1965 v -14.25151 l -9.08611,9.08611 -9.05499,-9.08611 v 14.25151 z"
         id="path141" />
      <path
         d="m 341.85806,995.79789 h -10.36189 v 2.58269 q 0,1.05797 0.7468,1.83592 0.77792,0.7779 1.83589,0.7779 h 2.61381 q 2.5827,0 2.5827,-2.61382 h 2.58269 q -0.59122,5.19652 -5.16539,5.19652 h -5.1965 q -2.11594,0 -3.67178,-1.5247 -1.52473,-1.5248 -1.52473,-3.67182 v -7.7792 q 0,-2.11594 1.52473,-3.64066 1.55584,-1.52473 3.67178,-1.52473 h 5.1965 q 2.11595,0 3.64067,1.52473 1.52472,1.52472 1.52472,3.64066 z m -10.36189,-2.5827 h 5.1965 v -2.61381 q 0,-1.05797 -0.77792,-1.80477 -0.7468,-0.77792 -1.83589,-0.77792 -1.05797,0 -1.83589,0.77792 -0.7468,0.7468 -0.7468,1.80477 z"
         id="path143" />
      <path
         d="m 351.36549,980.23949 h 5.16539 v 5.1965 h 2.61381 v 2.5827 h -2.61381 v 10.36189 q 0,1.27579 0.84016,1.96032 0.84015,0.6535 1.52472,0.6535 h 0.24893 v 2.5827 h -2.61381 q -2.11594,0 -3.64066,-1.5247 -1.52473,-1.5248 -1.52473,-3.67182 v -10.36189 h -2.61381 v -2.5827 h 2.61381 z"
         id="path145" />
      <path
         d="m 376.37006,993.21519 v -2.61381 q 0,-1.05797 -0.77792,-1.80477 -0.7468,-0.77792 -1.83589,-0.77792 h -2.58269 q -2.30265,0 -2.5827,2.58269 h -2.61381 q 0.62234,-5.16539 5.19651,-5.16539 h 5.1965 q 2.11594,0 3.64067,1.52473 1.52472,1.52472 1.52472,3.64066 v 12.97572 h -5.16539 v -2.5827 q -0.31117,2.5827 -2.61381,2.5827 h -2.58269 q -2.11595,0 -3.67179,-1.5247 -1.52472,-1.5248 -1.52472,-3.67182 v 0 q 0,-2.11594 1.52472,-3.64066 1.55584,-1.52473 3.67179,-1.52473 z m 0,2.5827 h -2.61381 q -1.05797,0 -1.83589,0.77792 -0.7468,0.7468 -0.7468,1.80477 v 0 q 0,1.05797 0.7468,1.83592 0.77792,0.7779 1.83589,0.7779 1.08909,0 1.83589,-0.7779 0.77792,-0.77795 0.77792,-1.83592 z"
         id="path147" />
      <path
         d="m 407.32141,1003.5771 v -23.33761 h 10.39301 q 2.11594,0 3.64067,1.55584 1.52472,1.52472 1.52472,3.64066 v 2.5827 q 0,2.11594 -1.52472,3.67178 -1.52473,1.52472 -3.64067,1.52472 h -5.1965 v 10.36191 z m 5.19651,-12.97572 h 2.58269 q 1.08909,0 1.83589,-0.7468 0.77792,-0.77792 0.77792,-1.83589 v -2.5827 q 0,-1.08909 -0.77792,-1.83589 -0.7468,-0.77792 -1.83589,-0.77792 h -2.58269 z"
         id="path149" />
      <path
         d="m 440.16644,993.21519 v -2.61381 q 0,-1.05797 -0.77792,-1.80477 -0.7468,-0.77792 -1.83589,-0.77792 h -2.5827 q -2.30264,0 -2.58269,2.58269 h -2.61381 q 0.62234,-5.16539 5.1965,-5.16539 h 5.19651 q 2.11594,0 3.64067,1.52473 1.52472,1.52472 1.52472,3.64066 v 12.97572 h -5.16539 v -2.5827 q -0.31117,2.5827 -2.61381,2.5827 h -2.5827 q -2.11594,0 -3.67178,-1.5247 -1.52472,-1.5248 -1.52472,-3.67182 v 0 q 0,-2.11594 1.52472,-3.64066 1.55584,-1.52473 3.67178,-1.52473 z m 0,2.5827 h -2.61381 q -1.05797,0 -1.83589,0.77792 -0.74681,0.7468 -0.74681,1.80477 v 0 q 0,1.05797 0.74681,1.83592 0.77792,0.7779 1.83589,0.7779 1.08909,0 1.83589,-0.7779 0.77792,-0.77795 0.77792,-1.83592 z"
         id="path151" />
      <path
         d="m 465.20116,990.60138 h -2.58269 q -0.31117,-2.58269 -2.61381,-2.58269 -1.05798,0 -1.8359,0.77792 -0.7468,0.7468 -0.7468,1.80477 v 7.7792 q 0,1.05797 0.7468,1.83592 0.77792,0.7779 1.8359,0.7779 2.30264,0 2.61381,-2.61382 h 2.58269 q -0.31117,5.19652 -5.1965,5.19652 h -2.5827 q -2.11594,0 -3.67178,-1.5247 -1.52472,-1.5248 -1.52472,-3.67182 v -7.7792 q 0,-2.11594 1.52472,-3.64066 1.55584,-1.52473 3.67178,-1.52473 h 2.5827 q 4.91645,0 5.1965,5.16539 z"
         id="path153" />
      <path
         d="m 472.06414,1003.5771 v -23.33761 h 5.19651 v 11.6688 l 7.7792,-6.4723 h 5.1965 l -10.85976,9.05499 10.85976,9.08612 h -5.1965 l -7.7792,-6.47231 v 6.47231 z"
         id="path155" />
      <path
         d="m 504.90918,993.21519 v -2.61381 q 0,-1.05797 -0.77792,-1.80477 -0.74681,-0.77792 -1.83589,-0.77792 h -2.5827 q -2.30264,0 -2.58269,2.58269 h -2.61381 q 0.62233,-5.16539 5.1965,-5.16539 h 5.19651 q 2.11594,0 3.64066,1.52473 1.52473,1.52472 1.52473,3.64066 v 12.97572 h -5.16539 v -2.5827 q -0.31117,2.5827 -2.61381,2.5827 h -2.5827 q -2.11594,0 -3.67178,-1.5247 -1.52472,-1.5248 -1.52472,-3.67182 v 0 q 0,-2.11594 1.52472,-3.64066 1.55584,-1.52473 3.67178,-1.52473 z m 0,2.5827 h -2.61381 q -1.05798,0 -1.8359,0.77792 -0.7468,0.7468 -0.7468,1.80477 v 0 q 0,1.05797 0.7468,1.83592 0.77792,0.7779 1.8359,0.7779 1.08908,0 1.83589,-0.7779 0.77792,-0.77795 0.77792,-1.83592 z"
         id="path157" />
      <path
         d="m 532.52658,985.43599 v 20.72381 q 0,2.1159 -1.52473,3.6406 -1.52472,1.5559 -3.64066,1.5559 h -5.19651 q -4.57417,0 -5.1965,-5.1965 h 2.61381 q 0.1867,2.6138 2.58269,2.6138 h 2.5827 q 1.08909,0 1.83589,-0.7779 0.77792,-0.7468 0.77792,-1.8359 v -5.1654 q -0.31117,2.5827 -2.61381,2.5827 h -2.5827 q -2.11594,0 -3.67178,-1.5247 -1.52472,-1.5248 -1.52472,-3.67182 v -7.7792 q 0,-2.11594 1.52472,-3.64066 1.55584,-1.52473 3.67178,-1.52473 z m -5.16539,2.5827 h -2.61381 q -1.05797,0 -1.83589,0.77792 -0.74681,0.7468 -0.74681,1.80477 v 7.7792 q 0,1.05797 0.74681,1.83592 0.77792,0.7779 1.83589,0.7779 1.08909,0 1.83589,-0.7779 0.77792,-0.77795 0.77792,-1.83592 z"
         id="path159" />
      <path
         d="m 554.9786,995.79789 h -10.36189 v 2.58269 q 0,1.05797 0.7468,1.83592 0.77792,0.7779 1.83589,0.7779 h 2.61381 q 2.5827,0 2.5827,-2.61382 h 2.58269 q -0.59122,5.19652 -5.16539,5.19652 h -5.1965 q -2.11594,0 -3.67178,-1.5247 -1.52473,-1.5248 -1.52473,-3.67182 v -7.7792 q 0,-2.11594 1.52473,-3.64066 1.55584,-1.52473 3.67178,-1.52473 h 5.1965 q 2.11595,0 3.64067,1.52473 1.52472,1.52472 1.52472,3.64066 z m -10.36189,-2.5827 h 5.1965 v -2.61381 q 0,-1.05797 -0.77792,-1.80477 -0.7468,-0.77792 -1.83589,-0.77792 -1.05797,0 -1.83589,0.77792 -0.7468,0.7468 -0.7468,1.80477 z"
         id="path161" />
      <path
         d="m 580.76455,1003.5771 v -23.33761 h 1.21355 l 11.07758,11.04646 11.04647,-11.04646 h 2.61381 v 23.33761 h -5.19651 v -14.25151 l -9.0861,9.08611 -9.05499,-9.08611 v 14.25151 z"
         id="path163" />
      <path
         d="m 623.94134,993.21519 v -2.61381 q 0,-1.05797 -0.77792,-1.80477 -0.7468,-0.77792 -1.83589,-0.77792 h -2.58269 q -2.30265,0 -2.5827,2.58269 h -2.61381 q 0.62234,-5.16539 5.19651,-5.16539 h 5.1965 q 2.11595,0 3.64067,1.52473 1.52472,1.52472 1.52472,3.64066 v 12.97572 h -5.16539 v -2.5827 q -0.31117,2.5827 -2.61381,2.5827 h -2.58269 q -2.11595,0 -3.67179,-1.5247 -1.52472,-1.5248 -1.52472,-3.67182 v 0 q 0,-2.11594 1.52472,-3.64066 1.55584,-1.52473 3.67179,-1.52473 z m 0,2.5827 h -2.61381 q -1.05797,0 -1.83589,0.77792 -0.7468,0.7468 -0.7468,1.80477 v 0 q 0,1.05797 0.7468,1.83592 0.77792,0.7779 1.83589,0.7779 1.08909,0 1.83589,-0.7779 0.77792,-0.77795 0.77792,-1.83592 z"
         id="path165" />
      <path
         d="m 636.00036,1003.5771 v -18.14111 h 5.1965 v 2.5827 q 0.15559,-1.30691 0.80904,-1.92924 0.65345,-0.65346 1.77366,-0.65346 h 2.61381 q 2.11594,0 3.64066,1.52473 1.52473,1.52472 1.52473,3.64066 v 12.97572 h -5.16539 v -12.97572 q 0,-1.05797 -0.77792,-1.80477 -0.7468,-0.77792 -1.83589,-0.77792 -1.05797,0 -1.83589,0.77792 -0.74681,0.7468 -0.74681,1.80477 v 12.97572 z"
         id="path167" />
      <path
         d="m 668.8454,993.21519 v -2.61381 q 0,-1.05797 -0.77792,-1.80477 -0.74681,-0.77792 -1.8359,-0.77792 h -2.58269 q -2.30264,0 -2.58269,2.58269 h -2.61382 q 0.62234,-5.16539 5.19651,-5.16539 h 5.19651 q 2.11594,0 3.64066,1.52473 1.52472,1.52472 1.52472,3.64066 v 12.97572 h -5.16538 v -2.5827 q -0.31117,2.5827 -2.61382,2.5827 h -2.58269 q -2.11594,0 -3.67178,-1.5247 -1.52473,-1.5248 -1.52473,-3.67182 v 0 q 0,-2.11594 1.52473,-3.64066 1.55584,-1.52473 3.67178,-1.52473 z m 0,2.5827 h -2.61382 q -1.05797,0 -1.83589,0.77792 -0.7468,0.7468 -0.7468,1.80477 v 0 q 0,1.05797 0.7468,1.83592 0.77792,0.7779 1.83589,0.7779 1.08909,0 1.8359,-0.7779 0.77792,-0.77795 0.77792,-1.83592 z"
         id="path169" />
      <path
         d="m 696.46278,985.43599 v 20.72381 q 0,2.1159 -1.52472,3.6406 -1.52473,1.5559 -3.64067,1.5559 h -5.1965 q -4.57417,0 -5.19651,-5.1965 h 2.61381 q 0.1867,2.6138 2.5827,2.6138 h 2.58269 q 1.08909,0 1.83589,-0.7779 0.77792,-0.7468 0.77792,-1.8359 v -5.1654 q -0.31117,2.5827 -2.61381,2.5827 h -2.58269 q -2.11595,0 -3.67179,-1.5247 -1.52472,-1.5248 -1.52472,-3.67182 v -7.7792 q 0,-2.11594 1.52472,-3.64066 1.55584,-1.52473 3.67179,-1.52473 z m -5.16539,2.5827 h -2.61381 q -1.05797,0 -1.83589,0.77792 -0.7468,0.7468 -0.7468,1.80477 v 7.7792 q 0,1.05797 0.7468,1.83592 0.77792,0.7779 1.83589,0.7779 1.08909,0 1.83589,-0.7779 0.77792,-0.77795 0.77792,-1.83592 z"
         id="path171" />
      <path
         d="m 718.91481,995.79789 h -10.3619 v 2.58269 q 0,1.05797 0.74681,1.83592 0.77792,0.7779 1.83589,0.7779 h 2.61381 q 2.58269,0 2.58269,-2.61382 h 2.5827 q -0.59122,5.19652 -5.16539,5.19652 h -5.19651 q -2.11594,0 -3.67178,-1.5247 -1.52472,-1.5248 -1.52472,-3.67182 v -7.7792 q 0,-2.11594 1.52472,-3.64066 1.55584,-1.52473 3.67178,-1.52473 h 5.19651 q 2.11594,0 3.64066,1.52473 1.52473,1.52472 1.52473,3.64066 z m -10.3619,-2.5827 h 5.19651 v -2.61381 q 0,-1.05797 -0.77792,-1.80477 -0.74681,-0.77792 -1.83589,-0.77792 -1.05797,0 -1.83589,0.77792 -0.74681,0.7468 -0.74681,1.80477 z"
         id="path173" />
      <path
         d="m 731.00494,1003.5771 h -5.19651 v -18.14111 h 5.19651 v 5.16539 q 0.31117,-2.58269 1.58696,-3.85848 1.3069,-1.30691 3.60954,-1.30691 h 2.5827 v 5.16539 h -5.19651 q -1.05797,0 -1.83589,0.77792 -0.7468,0.7468 -0.7468,1.83589 z"
         id="path175" />
    </g>
  </g>
  <metadata
     id="metadata152">
    <rdf:RDF>
      <cc:Work>
        <dc:format>image/svg+xml</dc:format>
        <dc:type
           rdf:resource="http://purl.org/dc/dcmitype/StillImage" />
        <cc:license
           rdf:resource="http://creativecommons.org/publicdomain/zero/1.0/" />
        <dc:publisher>
          <cc:Agent
             rdf:about="http://openclipart.org/">
            <dc:title>Openclipart</dc:title>
          </cc:Agent>
        </dc:publisher>
      </cc:Work>
      <cc:License
         rdf:about="http://creativecommons.org/publicdomain/zero/1.0/">
        <cc:permits
           rdf:resource="http://creativecommons.org/ns#Reproduction" />
        <cc:permits
           rdf:resource="http://creativecommons.org/ns#Distribution" />
        <cc:permits
           rdf:resource="http://creativecommons.org/ns#DerivativeWorks" />
      </cc:License>
    </rdf:RDF>
  </metadata>
</svg>
