<?xml version="1.0" encoding="UTF-8" standalone="no"?>
<!-- Created with Inkscape (http://www.inkscape.org/) -->

<svg
   version="1.1"
   id="svg10"
   width="2292.4756"
   height="2292.4756"
   viewBox="0 0 2292.4756 2292.4756"
   sodipodi:docname="worm5.svg"
   inkscape:version="1.1.1 (c3084ef, 2021-09-22)"
   xmlns:inkscape="http://www.inkscape.org/namespaces/inkscape"
   xmlns:sodipodi="http://sodipodi.sourceforge.net/DTD/sodipodi-0.dtd"
   xmlns:xlink="http://www.w3.org/1999/xlink"
   xmlns="http://www.w3.org/2000/svg"
   xmlns:svg="http://www.w3.org/2000/svg"
   xmlns:rdf="http://www.w3.org/1999/02/22-rdf-syntax-ns#"
   xmlns:cc="http://creativecommons.org/ns#"
   xmlns:dc="http://purl.org/dc/elements/1.1/">
  <metadata
     id="metadata16">
    <rdf:RDF>
      <cc:Work
         rdf:about="">
        <dc:format>image/svg+xml</dc:format>
        <dc:type
           rdf:resource="http://purl.org/dc/dcmitype/StillImage" />
      </cc:Work>
    </rdf:RDF>
  </metadata>
  <defs
     id="defs14">
    <linearGradient
       id="linearGradient3145"
       inkscape:collect="always">
      <stop
         id="stop3141"
         offset="0"
         style="stop-color:#fce4b5;stop-opacity:1" />
      <stop
         id="stop3143"
         offset="1"
         style="stop-color:#c39e75;stop-opacity:1" />
    </linearGradient>
    <linearGradient
       inkscape:collect="always"
       id="linearGradient3129">
      <stop
         style="stop-color:#fadda8;stop-opacity:1"
         offset="0"
         id="stop3125" />
      <stop
         style="stop-color:#a27f58;stop-opacity:1"
         offset="1"
         id="stop3127" />
    </linearGradient>
    <linearGradient
       inkscape:collect="always"
       id="linearGradient3121">
      <stop
         style="stop-color:#d1b788;stop-opacity:1"
         offset="0"
         id="stop3117" />
      <stop
         style="stop-color:#b3865c;stop-opacity:1"
         offset="1"
         id="stop3119" />
    </linearGradient>
    <linearGradient
       inkscape:collect="always"
       xlink:href="#linearGradient3121"
       id="linearGradient3123"
       x1="398.1796"
       y1="328.21353"
       x2="2241.9128"
       y2="2225.572"
       gradientUnits="userSpaceOnUse" />
    <linearGradient
       inkscape:collect="always"
       xlink:href="#linearGradient3129"
       id="linearGradient3131"
       x1="2030.9896"
       y1="466.37067"
       x2="2957.2966"
       y2="1870.1443"
       gradientUnits="userSpaceOnUse" />
    <linearGradient
       inkscape:collect="always"
       xlink:href="#linearGradient3145"
       id="linearGradient3139"
       x1="1118.1796"
       y1="-89.657005"
       x2="1426.7306"
       y2="816.00336"
       gradientUnits="userSpaceOnUse" />
    <filter
       style="color-interpolation-filters:sRGB"
       id="filter3147"
       inkscape:label="paper overlay"
       x="0"
       y="0"
       width="1"
       height="1">
      <feFlood
         id="feFlood3165"
         result="result9"
         flood-color="rgb(0,0,0)" />
      <feTurbulence
         id="feTurbulence3149"
         type="fractalNoise"
         baseFrequency="0.14999999999999999"
         numOctaves="10"
         result="result2"
         scale="28.5" />
      <feTurbulence
         numOctaves="10"
         baseFrequency="0.20420420420420421"
         type="fractalNoise"
         id="feTurbulence3151"
         result="result1" />
      <feTurbulence
         id="feTurbulence3155"
         result="result4"
         scale="11.199999999999999"
         type="fractalNoise"
         numOctaves="10"
         baseFrequency="0.41741741741741739" />
      <feDisplacementMap
         in2="result1"
         id="feDisplacementMap3153"
         in="result2"
         xChannelSelector="R"
         yChannelSelector="G"
         scale="28.493151"
         baseFrequency="0.099000000000000005"
         result="result3" />
      <feDisplacementMap
         in2="result4"
         id="feDisplacementMap3157"
         xChannelSelector="R"
         yChannelSelector="G"
         scale="11.232877"
         baseFrequency="0.41699999999999998"
         result="result5" />
      <feDisplacementMap
         in2="result5"
         id="feDisplacementMap3159"
         in="SourceGraphic"
         xChannelSelector="R"
         yChannelSelector="G"
         scale="63.6"
         result="result6" />
      <feComposite
         in2="SourceGraphic"
         id="feComposite3161"
         result="result7" />
      <feComposite
         in2="SourceGraphic"
         id="feComposite3163"
         operator="in"
         result="result8" />
      <feComposite
         in2="result5"
         id="feComposite3167"
         in="result9"
         operator="in"
         result="result10" />
      <feBlend
         mode="overlay"
         in2="result8"
         id="feBlend3169"
         result="result11" />
      <feBlend
         mode="color"
         in2="result11"
         id="feBlend3171"
         in="result6"
         result="result12" />
      <feBlend
         mode="screen"
         in2="result8"
         id="feBlend3173"
         result="result13" />
      <feComposite
         in2="result5"
         id="feComposite3179"
         operator="in"
         result="result14" />
      <feBlend
         mode="exclusion"
         in2="result8"
         id="feBlend3181"
         result="result15" />
      <feComposite
         in2="result5"
         id="feComposite3183"
         operator="in"
         result="result16" />
      <feBlend
         mode="multiply"
         in2="result8"
         id="feBlend3185"
         result="result17" />
      <feComposite
         in2="result17"
         id="feComposite3187"
         in="result13"
         operator="arithmetic"
         k2="0.5"
         k3="0.5"
         result="result18"
         k1="0"
         k4="0" />
      <feBlend
         mode="saturation"
         in2="result18"
         id="feBlend3189"
         in="result13"
         result="result19" />
      <feBlend
         mode="saturation"
         id="feBlend3193"
         in="result13"
         in2="result19" />
      <feComposite
         in2="SourceGraphic"
         id="feComposite3191"
         operator="in"
         result="result20" />
    </filter>
  </defs>
  <sodipodi:namedview
     pagecolor="#ffffff"
     bordercolor="#000000"
     borderopacity="1"
     objecttolerance="10"
     gridtolerance="10"
     guidetolerance="10"
     inkscape:pageopacity="0"
     inkscape:pageshadow="2"
     inkscape:window-width="1440"
     inkscape:window-height="847"
     id="namedview12"
     showgrid="false"
     borderlayer="true"
     inkscape:showpageshadow="false"
     inkscape:object-paths="false"
     inkscape:snap-global="true"
     showguides="true"
     inkscape:guide-bbox="true"
     inkscape:snap-smooth-nodes="true"
     inkscape:zoom="0.21476873"
     inkscape:cx="-260.74559"
     inkscape:cy="1143.09"
     inkscape:window-x="0"
     inkscape:window-y="745"
     inkscape:window-maximized="1"
     inkscape:current-layer="svg10"
     inkscape:snap-intersection-paths="true"
     inkscape:snap-center="true"
     inkscape:snap-object-midpoints="true"
     guidecolor="#00ffe4"
     guideopacity="1"
     guidehicolor="#f000ff"
     guidehiopacity="1"
     inkscape:pagecheckerboard="true"
     fit-margin-top="100"
     fit-margin-left="100"
     fit-margin-right="100"
     fit-margin-bottom="100"
     lock-margins="true" />
  <g
     id="g2036"
     transform="matrix(-1,0,0,1,8837.6632,-53.71781)" />
  <g
     id="g3115"
     transform="translate(-53.7645,-53.71781)">
    <g
       id="g3094">
      <g
         id="g3025">
        <path
           sodipodi:nodetypes="ccccccc"
           inkscape:connector-curvature="0"
           id="path7169"
           d="m 2228.24,1870.5454 -357.6479,357.6479 -849.4138,-849.4138 V 529.36572 L 1200.0022,350.54177 2228.24,171.71781 Z"
           style="color:#000000;clip-rule:nonzero;display:inline;overflow:visible;visibility:visible;opacity:1;isolation:auto;mix-blend-mode:normal;color-interpolation:sRGB;color-interpolation-filters:linearRGB;solid-color:#000000;solid-opacity:1;vector-effect:none;fill:url(#linearGradient3131);fill-opacity:1;fill-rule:nonzero;stroke:none;stroke-width:42.9177;stroke-linecap:round;stroke-linejoin:round;stroke-miterlimit:4;stroke-dasharray:none;stroke-opacity:1;marker:none;paint-order:fill markers stroke;filter:url(#filter3147);color-rendering:auto;image-rendering:auto;shape-rendering:auto;text-rendering:auto;enable-background:accumulate" />
        <path
           sodipodi:nodetypes="ccccc"
           inkscape:connector-curvature="0"
           id="path7171"
           d="M 2228.24,171.71781 1021.1783,1378.7795 171.7645,529.36572 529.41241,171.71781 Z"
           style="color:#000000;clip-rule:nonzero;display:inline;overflow:visible;visibility:visible;opacity:1;isolation:auto;mix-blend-mode:normal;color-interpolation:sRGB;color-interpolation-filters:linearRGB;solid-color:#000000;solid-opacity:1;vector-effect:none;fill:url(#linearGradient3139);fill-opacity:1;fill-rule:nonzero;stroke:none;stroke-width:42.9177;stroke-linecap:round;stroke-linejoin:round;stroke-miterlimit:4;stroke-dasharray:none;stroke-opacity:1;marker:none;paint-order:fill markers stroke;filter:url(#filter3147);color-rendering:auto;image-rendering:auto;shape-rendering:auto;text-rendering:auto;enable-background:accumulate" />
        <path
           style="color:#000000;clip-rule:nonzero;display:inline;overflow:visible;visibility:visible;opacity:1;isolation:auto;mix-blend-mode:normal;color-interpolation:sRGB;color-interpolation-filters:linearRGB;solid-color:#000000;solid-opacity:1;vector-effect:none;fill:url(#linearGradient3123);fill-opacity:1;fill-rule:nonzero;stroke:none;stroke-width:42.9177;stroke-linecap:round;stroke-linejoin:round;stroke-miterlimit:4;stroke-dasharray:none;stroke-opacity:1;marker:none;paint-order:fill markers stroke;filter:url(#filter3147);color-rendering:auto;image-rendering:auto;shape-rendering:auto;text-rendering:auto;enable-background:accumulate"
           d="M 1870.5921,529.36572 V 2228.1933 H 171.7645 V 529.36572 h 849.4138 z"
           id="path7173"
           inkscape:connector-curvature="0"
           sodipodi:nodetypes="cccccc" />
      </g>
      <g
         id="g3075">
        <g
           id="g3045">
          <path
             sodipodi:nodetypes="sssssssss"
             inkscape:connector-curvature="0"
             id="path7177"
             d="m 574.1184,1325.1323 c -45.62198,0 -94.18802,-20.1167 -126.44763,-52.3763 -32.25961,-32.2596 -52.37632,-80.8257 -52.37632,-126.4476 0,-45.622 20.11671,-94.1881 52.37632,-126.4477 32.25961,-32.25957 80.82565,-52.37629 126.44763,-52.37629 45.62198,0 94.18802,20.11672 126.44763,52.37629 32.25961,32.2596 52.37633,80.8257 52.37633,126.4477 0,45.6219 -20.11672,94.188 -52.37633,126.4476 -32.25961,32.2596 -80.82565,52.3763 -126.44763,52.3763 z"
             style="color:#000000;clip-rule:nonzero;display:inline;overflow:visible;visibility:visible;opacity:1;isolation:auto;mix-blend-mode:normal;color-interpolation:sRGB;color-interpolation-filters:linearRGB;solid-color:#000000;solid-opacity:1;vector-effect:none;fill:#ffffff;fill-opacity:1;fill-rule:nonzero;stroke:none;stroke-width:19.9482;stroke-linecap:round;stroke-linejoin:round;stroke-miterlimit:4;stroke-dasharray:none;stroke-opacity:1;marker:none;paint-order:fill markers stroke;filter:url(#filter3147);color-rendering:auto;image-rendering:auto;shape-rendering:auto;text-rendering:auto;enable-background:accumulate" />
          <path
             style="color:#000000;clip-rule:nonzero;display:inline;overflow:visible;visibility:visible;opacity:1;isolation:auto;mix-blend-mode:normal;color-interpolation:sRGB;color-interpolation-filters:linearRGB;solid-color:#000000;solid-opacity:1;vector-effect:none;fill:#000000;fill-opacity:1;fill-rule:nonzero;stroke:none;stroke-width:5.98445;stroke-linecap:round;stroke-linejoin:round;stroke-miterlimit:4;stroke-dasharray:none;stroke-opacity:1;marker:none;paint-order:fill markers stroke;color-rendering:auto;image-rendering:auto;shape-rendering:auto;text-rendering:auto;enable-background:accumulate"
             d="m 574.1184,1199.9556 c -13.68659,0 -28.25641,-6.0351 -37.93429,-15.7129 -9.67788,-9.6779 -15.7129,-24.2477 -15.7129,-37.9343 0,-13.6866 6.03502,-28.2564 15.7129,-37.9343 9.67788,-9.6779 24.2477,-15.7129 37.93429,-15.7129 13.68659,0 28.25641,6.035 37.93429,15.7129 9.67788,9.6779 15.7129,24.2477 15.7129,37.9343 0,13.6866 -6.03502,28.2564 -15.7129,37.9343 -9.67788,9.6778 -24.2477,15.7129 -37.93429,15.7129 z"
             id="path7179"
             inkscape:connector-curvature="0"
             sodipodi:nodetypes="sssssssss" />
          <path
             sodipodi:nodetypes="ccccc"
             style="color:#000000;clip-rule:nonzero;display:inline;overflow:visible;visibility:visible;opacity:1;isolation:auto;mix-blend-mode:normal;color-interpolation:sRGB;color-interpolation-filters:linearRGB;solid-color:#000000;solid-opacity:1;vector-effect:none;fill:#2d2016;fill-opacity:1;fill-rule:nonzero;stroke:none;stroke-width:7.4924;stroke-linecap:round;stroke-linejoin:round;stroke-miterlimit:4;stroke-dasharray:none;stroke-opacity:1;marker:none;paint-order:markers stroke fill;filter:url(#filter3147);color-rendering:auto;image-rendering:auto;shape-rendering:auto;text-rendering:auto;enable-background:accumulate"
             d="M 323.76486,827.12116 V 719.82678 h 500.70708 v 107.29438 z"
             id="path7181"
             inkscape:connector-curvature="0" />
        </g>
        <g
           id="g3053">
          <path
             style="color:#000000;clip-rule:nonzero;display:inline;overflow:visible;visibility:visible;opacity:1;isolation:auto;mix-blend-mode:normal;color-interpolation:sRGB;color-interpolation-filters:linearRGB;solid-color:#000000;solid-opacity:1;vector-effect:none;fill:#ffffff;fill-opacity:1;fill-rule:nonzero;stroke:none;stroke-width:19.9482;stroke-linecap:round;stroke-linejoin:round;stroke-miterlimit:4;stroke-dasharray:none;stroke-opacity:1;marker:none;paint-order:fill markers stroke;filter:url(#filter3147);color-rendering:auto;image-rendering:auto;shape-rendering:auto;text-rendering:auto;enable-background:accumulate"
             d="m 1468.2382,1325.1323 c 45.622,0 94.188,-20.1167 126.4476,-52.3763 32.2596,-32.2596 52.3763,-80.8257 52.3763,-126.4476 0,-45.622 -20.1167,-94.1881 -52.3763,-126.4477 -32.2596,-32.25957 -80.8256,-52.37629 -126.4476,-52.37629 -45.622,0 -94.188,20.11672 -126.4477,52.37629 -32.2596,32.2596 -52.3763,80.8257 -52.3763,126.4477 0,45.6219 20.1167,94.188 52.3763,126.4476 32.2597,32.2596 80.8257,52.3763 126.4477,52.3763 z"
             id="path7185"
             inkscape:connector-curvature="0"
             sodipodi:nodetypes="sssssssss" />
          <path
             sodipodi:nodetypes="sssssssss"
             inkscape:connector-curvature="0"
             id="path7187"
             d="m 1468.2382,1199.9556 c 13.6866,0 28.2564,-6.0351 37.9343,-15.7129 9.6778,-9.6779 15.7129,-24.2477 15.7129,-37.9343 0,-13.6866 -6.0351,-28.2564 -15.7129,-37.9343 -9.6779,-9.6779 -24.2477,-15.7129 -37.9343,-15.7129 -13.6866,0 -28.2564,6.035 -37.9343,15.7129 -9.6779,9.6779 -15.7129,24.2477 -15.7129,37.9343 0,13.6866 6.035,28.2564 15.7129,37.9343 9.6779,9.6778 24.2477,15.7129 37.9343,15.7129 z"
             style="color:#000000;clip-rule:nonzero;display:inline;overflow:visible;visibility:visible;opacity:1;isolation:auto;mix-blend-mode:normal;color-interpolation:sRGB;color-interpolation-filters:linearRGB;solid-color:#000000;solid-opacity:1;vector-effect:none;fill:#000000;fill-opacity:1;fill-rule:nonzero;stroke:none;stroke-width:5.98445;stroke-linecap:round;stroke-linejoin:round;stroke-miterlimit:4;stroke-dasharray:none;stroke-opacity:1;marker:none;paint-order:fill markers stroke;color-rendering:auto;image-rendering:auto;shape-rendering:auto;text-rendering:auto;enable-background:accumulate" />
          <path
             inkscape:connector-curvature="0"
             id="path7189"
             d="M 1718.5917,827.12116 V 719.82678 h -500.7071 v 107.29438 z"
             style="color:#000000;clip-rule:nonzero;display:inline;overflow:visible;visibility:visible;opacity:1;isolation:auto;mix-blend-mode:normal;color-interpolation:sRGB;color-interpolation-filters:linearRGB;solid-color:#000000;solid-opacity:1;vector-effect:none;fill:#2d2016;fill-opacity:1;fill-rule:nonzero;stroke:none;stroke-width:7.4924;stroke-linecap:round;stroke-linejoin:round;stroke-miterlimit:4;stroke-dasharray:none;stroke-opacity:1;marker:none;paint-order:markers stroke fill;filter:url(#filter3147);color-rendering:auto;image-rendering:auto;shape-rendering:auto;text-rendering:auto;enable-background:accumulate"
             sodipodi:nodetypes="ccccc" />
        </g>
        <g
           id="g3061"
           transform="rotate(180,1021.1783,1797.4268)">
          <path
             style="color:#000000;clip-rule:nonzero;display:inline;overflow:visible;visibility:visible;opacity:1;isolation:auto;mix-blend-mode:normal;color-interpolation:sRGB;color-interpolation-filters:linearRGB;solid-color:#000000;solid-opacity:1;vector-effect:none;fill:#3f2c20;fill-opacity:1;fill-rule:nonzero;stroke:none;stroke-width:286.118;stroke-linecap:round;stroke-linejoin:round;stroke-miterlimit:4;stroke-dasharray:none;stroke-opacity:1;marker:none;paint-order:fill markers stroke;filter:url(#filter3147);color-rendering:auto;image-rendering:auto;shape-rendering:auto;text-rendering:auto;enable-background:accumulate"
             d="m 1351.0274,1708.6286 c 37.9254,37.7767 69.2855,82.0953 91.8737,130.6057 7.9018,16.97 14.7634,34.5448 18.4701,52.8936 3.7067,18.3487 4.1729,37.5644 -0.5984,55.6656 -7.2372,27.4563 -26.7931,51.2987 -52.0425,64.2869 -24.3366,12.5186 -53.0345,15.0033 -80.0137,10.4091 -25.6937,-4.3753 -49.8894,-14.7854 -74.3652,-23.7433 -37.1778,-13.6067 -75.5145,-24.089 -114.4896,-31.0367 -39.6088,-7.0608 -79.8637,-10.3651 -118.6835,-10.3651 -38.81981,0 -79.07469,3.3043 -118.68348,10.3651 -38.97516,6.9477 -77.31185,17.43 -114.48969,31.0367 -24.47578,8.9579 -48.67149,19.368 -74.36515,23.7433 -26.97925,4.5942 -55.67712,2.1095 -80.01372,-10.4091 -25.24939,-12.9882 -44.80529,-36.8306 -52.04248,-64.2869 -4.77128,-18.1012 -4.30512,-37.3169 -0.59842,-55.6656 3.7067,-18.3488 10.56833,-35.9236 18.47013,-52.8936 22.58823,-48.5104 53.94828,-92.829 91.87368,-130.6057 90.40316,-90.0487 200.27232,-138.4082 329.84913,-138.4082 129.5768,0 239.4459,48.3595 329.8491,138.4082 z"
             id="path7193"
             inkscape:connector-curvature="0"
             sodipodi:nodetypes="sssssssssssssssssss" />
          <path
             id="path7195"
             d="m 1021.177,1570.2197 c -17.7649,0 -35.14503,0.941 -52.16976,2.7418 v 81.7735 c 0,11.9159 7.28318,21.0479 14.13478,26.6385 9.95947,8.1266 23.96418,12.6923 38.23408,12.6923 14.2699,0 28.2746,-4.5657 38.2341,-12.6923 6.8516,-5.5906 14.1348,-14.7226 14.1348,-26.6385 v -81.7281 c -17.1514,-1.8288 -34.6648,-2.7872 -52.568,-2.7872 z m -157.30567,26.6979 c -37.03626,13.3749 -71.94185,31.6858 -104.74124,54.6705 v 31.1371 c 0,11.9159 7.28318,21.0478 14.13478,26.6384 9.95946,8.1266 23.96766,12.6924 38.23759,12.6924 14.26992,0 28.27463,-4.5658 38.2341,-12.6924 6.8516,-5.5906 14.13477,-14.7225 14.13477,-26.6384 z m 314.61487,0 v 85.8076 c 0,11.9159 7.2832,21.0478 14.1348,26.6384 9.9595,8.1266 23.9642,12.6924 38.2341,12.6924 14.2699,0 28.2746,-4.5658 38.2341,-12.6924 6.8516,-5.5906 14.1348,-14.7225 14.1348,-26.6384 v -31.1371 c -32.7987,-22.984 -67.7024,-41.296 -104.7378,-54.6705 z"
             style="color:#000000;clip-rule:nonzero;display:inline;overflow:visible;visibility:visible;opacity:1;isolation:auto;mix-blend-mode:normal;color-interpolation:sRGB;color-interpolation-filters:linearRGB;solid-color:#000000;solid-opacity:1;vector-effect:none;fill:#ffffff;fill-opacity:1;fill-rule:nonzero;stroke:none;stroke-width:31.6689;stroke-linecap:round;stroke-linejoin:round;stroke-miterlimit:4;stroke-dasharray:none;stroke-opacity:1;marker:none;paint-order:fill markers stroke;filter:url(#filter3147);color-rendering:auto;image-rendering:auto;shape-rendering:auto;text-rendering:auto;enable-background:accumulate"
             inkscape:connector-curvature="0" />
          <path
             id="path7197"
             d="m 916.24021,1842.584 c -14.26993,0 -28.27463,4.5658 -38.2341,12.6923 -6.8516,5.5907 -14.13478,14.7226 -14.13478,26.6385 v 93.914 c 12.79385,-3.075 25.66778,-5.8112 38.62178,-8.1204 21.9597,-3.9146 44.11376,-6.6337 66.11597,-8.316 v -77.4776 c 0,-11.9159 -7.28318,-21.0478 -14.13478,-26.6385 -9.95946,-8.1265 -23.96417,-12.6923 -38.23409,-12.6923 z m 209.87719,0 c -14.27,0 -28.2782,4.5658 -38.2376,12.6923 -6.8516,5.5907 -14.1348,14.7226 -14.1348,26.6385 v 77.4776 c 22.0028,1.6823 44.1556,4.4013 66.116,8.316 12.9547,2.3093 25.8307,5.0451 38.6252,8.1204 v -93.914 c 0,-11.9159 -7.2831,-21.0478 -14.1347,-26.6385 -9.9595,-8.1265 -23.9642,-12.6923 -38.2341,-12.6923 z m -419.35619,55.5926 c -14.26992,0 -28.27462,4.5692 -38.23409,12.6958 -6.8516,5.5906 -14.13478,14.7226 -14.13478,26.6385 v 82.6083 c 19.10127,5.2845 39.62376,5.7129 59.24591,2.3715 15.58263,-2.6535 30.61452,-7.5385 45.49184,-12.9613 v -72.0185 c 0,-11.9159 -7.28318,-21.0479 -14.13478,-26.6385 -9.95947,-8.1266 -23.96417,-12.6958 -38.2341,-12.6958 z m 628.83519,0 c -14.27,0 -28.2782,4.5692 -38.2376,12.6958 -6.8516,5.5906 -14.1348,14.7226 -14.1348,26.6385 v 72.0185 c 14.8783,5.4232 29.9081,10.3076 45.4918,12.9613 19.6229,3.3415 40.1476,2.9136 59.2494,-2.3715 v -82.6083 c 0,-11.9159 -7.2832,-21.0479 -14.1348,-26.6385 -9.9594,-8.1266 -23.9641,-12.6958 -38.234,-12.6958 z"
             style="color:#000000;clip-rule:nonzero;display:inline;overflow:visible;visibility:visible;opacity:1;isolation:auto;mix-blend-mode:normal;color-interpolation:sRGB;color-interpolation-filters:linearRGB;solid-color:#000000;solid-opacity:1;vector-effect:none;fill:#ffffff;fill-opacity:1;fill-rule:nonzero;stroke:none;stroke-width:31.6689;stroke-linecap:round;stroke-linejoin:round;stroke-miterlimit:4;stroke-dasharray:none;stroke-opacity:1;marker:none;paint-order:fill markers stroke;filter:url(#filter3147);color-rendering:auto;image-rendering:auto;shape-rendering:auto;text-rendering:auto;enable-background:accumulate"
             inkscape:connector-curvature="0" />
        </g>
      </g>
    </g>
    <path
       id="path7205"
       style="color:#000000;clip-rule:nonzero;display:inline;overflow:visible;visibility:visible;opacity:1;isolation:auto;mix-blend-mode:normal;color-interpolation:sRGB;color-interpolation-filters:linearRGB;solid-color:#000000;solid-opacity:1;vector-effect:none;fill:none;fill-opacity:1;fill-rule:nonzero;stroke:#000000;stroke-width:36;stroke-linecap:round;stroke-linejoin:round;stroke-miterlimit:4;stroke-dasharray:none;stroke-opacity:1;marker:none;paint-order:fill markers stroke;color-rendering:auto;image-rendering:auto;shape-rendering:auto;text-rendering:auto;enable-background:accumulate"
       d="M 1378.8262,171.71781 1021.1783,529.36572 M 529.41241,171.71781 864.70733,261.12979 685.88337,439.95375 171.7645,529.36572 M 2228.24,171.71781 l -514.1189,89.41198 -178.8239,178.82396 335.2949,89.41197 M 1718.5917,827.12116 V 719.82678 h -500.7071 v 107.29438 z m -1394.82684,0 V 719.82678 H 824.47194 V 827.12116 Z M 574.1184,1325.1323 c -45.62198,0 -94.18802,-20.1167 -126.44763,-52.3763 -32.25961,-32.2596 -52.37632,-80.8257 -52.37632,-126.4476 0,-45.622 20.11671,-94.1881 52.37632,-126.4477 32.25961,-32.25957 80.82565,-52.37629 126.44763,-52.37629 45.62198,0 94.18802,20.11672 126.44763,52.37629 32.25961,32.2596 52.37633,80.8257 52.37633,126.4477 0,45.6219 -20.11672,94.188 -52.37633,126.4476 -32.25961,32.2596 -80.82565,52.3763 -126.44763,52.3763 z m 894.1198,0 c 45.622,0 94.188,-20.1167 126.4476,-52.3763 32.2596,-32.2596 52.3763,-80.8257 52.3763,-126.4476 0,-45.622 -20.1167,-94.1881 -52.3763,-126.4477 -32.2596,-32.25957 -80.8256,-52.37629 -126.4476,-52.37629 -45.622,0 -94.188,20.11672 -126.4477,52.37629 -32.2596,32.2596 -52.3763,80.8257 -52.3763,126.4477 0,45.6219 20.1167,94.188 52.3763,126.4476 32.2597,32.2596 80.8257,52.3763 126.4477,52.3763 z m -776.90903,558.9489 c -37.9254,-37.7767 -69.28545,-82.0952 -91.87368,-130.6057 -7.9018,-16.9699 -14.76343,-34.5447 -18.47013,-52.8935 -3.7067,-18.3487 -4.17286,-37.5645 0.59842,-55.6656 7.23719,-27.4563 26.79309,-51.2987 52.04248,-64.2869 24.3366,-12.5187 53.03447,-15.0033 80.01372,-10.4091 25.69366,4.3753 49.88937,14.7854 74.36515,23.7432 37.17784,13.6067 75.51453,24.089 114.48969,31.0368 39.60879,7.0607 79.86367,10.365 118.68348,10.365 38.8198,0 79.0747,-3.3043 118.6835,-10.365 38.9751,-6.9478 77.3118,-17.4301 114.4896,-31.0368 24.4758,-8.9578 48.6715,-19.3679 74.3652,-23.7432 26.9792,-4.5942 55.6771,-2.1096 80.0137,10.4091 25.2494,12.9882 44.8053,36.8306 52.0425,64.2869 4.7713,18.1011 4.3051,37.3169 0.5984,55.6656 -3.7067,18.3488 -10.5683,35.9236 -18.4701,52.8935 -22.5882,48.5105 -53.9483,92.829 -91.8737,130.6057 -90.4032,90.0488 -200.2723,138.4083 -329.8491,138.4083 -129.57681,0 -239.44597,-48.3595 -329.84913,-138.4083 z M 2228.24,171.71781 1870.5921,529.36572 m -1698.8276,0 H 1870.5921 V 2228.1933 m -1698.8276,0 H 1870.5921 L 2228.24,1870.5454 V 171.71781 H 529.41241 L 171.7645,529.36572 Z"
       inkscape:connector-curvature="0"
       sodipodi:nodetypes="ccccccccccccccccccccsssssssssssssssssssssssssssssssssssssccccccccaccc" />
  </g>
</svg>
