<?xml version="1.0" encoding="UTF-8" standalone="no"?>
<!-- Created with Inkscape (http://www.inkscape.org/) -->

<svg
   id="svg12512"
   sodipodi:docname="logo-banner.svg"
   viewBox="0 0 1280.0126 453.54332"
   version="1.1"
   inkscape:version="1.2.2 (b0a84865, 2022-12-01)"
   width="33.867001cm"
   height="12cm"
   inkscape:export-filename="/Users/kde/Downloads/logo-light-mode.png"
   inkscape:export-xdpi="96"
   inkscape:export-ydpi="96"
   xmlns:inkscape="http://www.inkscape.org/namespaces/inkscape"
   xmlns:sodipodi="http://sodipodi.sourceforge.net/DTD/sodipodi-0.dtd"
   xmlns="http://www.w3.org/2000/svg"
   xmlns:svg="http://www.w3.org/2000/svg"
   xmlns:rdf="http://www.w3.org/1999/02/22-rdf-syntax-ns#"
   xmlns:cc="http://creativecommons.org/ns#"
   xmlns:dc="http://purl.org/dc/elements/1.1/">
  <defs
     id="defs155" />
  <sodipodi:namedview
     id="base"
     fit-margin-left="32"
     inkscape:zoom="0.68111408"
     borderopacity="1.0"
     inkscape:current-layer="layer1"
     inkscape:cx="735.5596"
     inkscape:cy="317.86158"
     inkscape:window-maximized="0"
     showgrid="false"
     fit-margin-right="32"
     showguides="true"
     bordercolor="#666666"
     inkscape:window-x="1280"
     inkscape:guide-bbox="true"
     inkscape:window-y="25"
     fit-margin-bottom="32"
     inkscape:window-width="1280"
     inkscape:pageopacity="0.0"
     inkscape:pageshadow="2"
     pagecolor="#ffffff"
     inkscape:document-units="px"
     inkscape:window-height="1387"
     fit-margin-top="32"
     inkscape:pagecheckerboard="true"
     width="1e-05px"
     height="640px"
     inkscape:showpageshadow="2"
     inkscape:deskcolor="#d1d1d1">
    <inkscape:grid
       id="grid12520"
       spacingx="2px"
       enabled="false"
       spacingy="2px"
       visible="true"
       snapvisiblegridlinesonly="true"
       type="xygrid"
       empspacing="8"
       originx="0"
       originy="0" />
    <inkscape:grid
       id="grid12538"
       enabled="true"
       visible="true"
       snapvisiblegridlinesonly="true"
       units="mm"
       type="axonomgrid"
       empspacing="5"
       originx="0"
       originy="0" />
  </sodipodi:namedview>
  <g
     id="layer1"
     inkscape:label="Capa 1"
     inkscape:groupmode="layer"
     transform="translate(-196.15,-408.9)">
    <g
       id="g245"
       transform="translate(9.2079307,-88.442221)">
      <g
         id="g19383"
         transform="translate(14,-4)"
         style="fill:#d3d3f6;fill-opacity:1;stroke:#534d73;stroke-opacity:1">
        <path
           id="path12540"
           style="fill:#d3d3f6;fill-opacity:1;fill-rule:evenodd;stroke:#534d73;stroke-width:15.3939;stroke-linecap:round;stroke-linejoin:round;stroke-opacity:1"
           inkscape:connector-curvature="0"
           d="m 389.53749,667.01506 118.58031,67.90401 v 135.80415 l -118.58031,-67.904 z" />
        <path
           id="path12542"
           style="fill:#d3d3f6;fill-opacity:1;fill-rule:evenodd;stroke:#534d73;stroke-width:15.3939;stroke-linecap:round;stroke-linejoin:round;stroke-opacity:1"
           inkscape:connector-curvature="0"
           d="M 508.09462,734.89223 626.67493,666.98824 V 802.7924 l -118.58031,67.90399 z" />
        <path
           id="path12548"
           sodipodi:nodetypes="ccccc"
           style="fill:#d3d3f6;fill-opacity:1;fill-rule:evenodd;stroke:#534d73;stroke-width:15.3939;stroke-linecap:round;stroke-linejoin:round;stroke-opacity:1"
           inkscape:connector-curvature="0"
           d="m 626.69039,667.01506 -118.58032,-67.90399 47.43058,-27.16083 118.58032,67.904 z" />
        <path
           id="path12550"
           sodipodi:nodetypes="ccccc"
           style="fill:#d3d3f6;fill-opacity:1;fill-rule:evenodd;stroke:#534d73;stroke-width:15.3939;stroke-linecap:round;stroke-linejoin:round;stroke-opacity:1"
           inkscape:connector-curvature="0"
           d="m 508.09462,734.89223 -47.43058,27.16083 -118.58031,-67.90399 47.43058,-27.16083 z" />
        <path
           id="path13068"
           style="fill:#d3d3f6;fill-opacity:1;fill-rule:evenodd;stroke:#534d73;stroke-width:15.3939;stroke-linecap:round;stroke-linejoin:round;stroke-opacity:1"
           inkscape:connector-curvature="0"
           d="m 508.09462,734.89223 118.58031,-67.90399 47.43058,27.16083 -118.58031,67.90399 z" />
        <path
           id="path13070"
           d="m 342.08373,639.84121 118.58031,-67.904 47.43058,27.16084 -118.58031,67.90399 z"
           style="fill:#d3d3f6;fill-opacity:1;fill-rule:evenodd;stroke:#534d73;stroke-width:15.3939;stroke-linecap:round;stroke-linejoin:round;stroke-opacity:1"
           inkscape:connector-curvature="0" />
        <path
           id="path13429"
           sodipodi:nodetypes="ccccc"
           style="fill:#d3d3f6;fill-opacity:1;stroke:#534d73;stroke-width:15.3939;stroke-linecap:round;stroke-linejoin:round;stroke-opacity:1"
           inkscape:connector-curvature="0"
           d="m 508.09462,626.27344 -35.5741,20.37082 35.5741,20.3708 35.5741,-20.3708 z" />
        <path
           id="path13431"
           sodipodi:nodetypes="ccccc"
           style="fill:#d3d3f6;fill-opacity:1;stroke:#534d73;stroke-width:15.3939;stroke-linecap:round;stroke-linejoin:round;stroke-opacity:1"
           inkscape:connector-curvature="0"
           d="m 508.09462,667.01506 v 40.74164 l -35.5741,-20.37082 v -40.74162 z" />
        <path
           id="path13433"
           sodipodi:nodetypes="ccccc"
           d="m 508.09462,667.01506 4e-5,40.74164 35.57409,-20.37082 v -40.74162 z"
           style="fill:#d3d3f6;fill-opacity:1;stroke:#534d73;stroke-width:15.3939;stroke-linecap:round;stroke-linejoin:round;stroke-opacity:1"
           inkscape:connector-curvature="0" />
        <path
           id="path13429-7"
           sodipodi:nodetypes="ccccc"
           style="fill:#d3d3f6;fill-opacity:1;stroke:#534d73;stroke-width:15.3939;stroke-linecap:round;stroke-linejoin:round;stroke-opacity:1"
           inkscape:connector-curvature="0"
           d="m 401.40093,768.84998 -35.57409,20.37082 35.57409,20.37081 35.57409,-20.37081 z" />
        <path
           id="path13431-4"
           sodipodi:nodetypes="ccccc"
           style="fill:#d3d3f6;fill-opacity:1;stroke:#534d73;stroke-width:15.3939;stroke-linecap:round;stroke-linejoin:round;stroke-opacity:1"
           inkscape:connector-curvature="0"
           d="m 401.40093,809.59161 v 40.74163 L 365.82684,829.96243 V 789.2208 Z" />
        <path
           id="path13433-7"
           sodipodi:nodetypes="ccccc"
           d="m 401.40093,809.59161 4e-5,40.74163 35.57409,-20.37081 V 789.2208 Z"
           style="fill:#d3d3f6;fill-opacity:1;stroke:#534d73;stroke-width:15.3939;stroke-linecap:round;stroke-linejoin:round;stroke-opacity:1"
           inkscape:connector-curvature="0" />
        <path
           id="path13514"
           d="m 602.96351,802.80773 -35.5741,20.37081 35.5741,20.37082 35.57409,-20.37082 z"
           sodipodi:nodetypes="ccccc"
           style="fill:#d3d3f6;fill-opacity:1;stroke:#534d73;stroke-width:15.3939;stroke-linecap:round;stroke-linejoin:round;stroke-opacity:1"
           inkscape:connector-curvature="0" />
        <path
           id="path13516"
           d="m 602.96351,843.54936 v 40.74162 l -35.5741,-20.37081 v -40.74163 z"
           sodipodi:nodetypes="ccccc"
           style="fill:#d3d3f6;fill-opacity:1;stroke:#534d73;stroke-width:15.3939;stroke-linecap:round;stroke-linejoin:round;stroke-opacity:1"
           inkscape:connector-curvature="0" />
        <path
           id="path13518"
           sodipodi:nodetypes="ccccc"
           inkscape:connector-curvature="0"
           style="fill:#d3d3f6;fill-opacity:1;stroke:#534d73;stroke-width:15.3939;stroke-linecap:round;stroke-linejoin:round;stroke-opacity:1"
           d="m 602.96351,843.54936 3e-5,40.74162 35.5741,-20.37081 v -40.74163 z" />
      </g>
      <g
         aria-label="mpm"
         id="text1137"
         style="font-size:213.333px;line-height:1.25;fill:#2d2364">
        <path
           d="m 876.28262,766.05029 h -35.41328 v -88.95985 q 0,-7.25333 -5.33332,-12.37332 -5.11999,-5.33332 -12.58665,-5.33332 -7.25332,0 -12.58665,5.33332 -5.11999,5.11999 -5.11999,12.37332 v 88.95985 H 769.61612 V 641.67716 h 35.62661 v 17.70664 q 1.06667,-8.95999 5.54666,-13.22665 4.47999,-4.47999 12.15998,-4.47999 h 17.91997 q 18.13331,0 26.66663,12.58664 4.26666,-6.39998 10.87998,-9.38665 6.61332,-3.19999 15.78664,-3.19999 h 17.70664 q 14.50664,0 24.95996,10.45331 10.66665,10.45332 10.66665,24.95997 v 88.95985 h -35.62661 v -88.95985 q 0,-7.03999 -5.33333,-12.37332 -5.11999,-5.33332 -12.37331,-5.33332 -7.25332,0 -12.58665,5.33332 -5.33332,5.11999 -5.33332,12.37332 z"
           style="font-family:Silom;-inkscape-font-specification:Silom"
           id="path116" />
        <path
           d="m 982.94912,641.67716 h 35.62658 v 17.70664 q 0,-8.95999 4.48,-13.22665 4.48,-4.47999 13.2267,-4.47999 h 17.9199 q 14.5067,0 24.96,10.45331 10.4533,10.45332 10.4533,24.95997 v 53.33324 q 0,14.71998 -10.4533,25.1733 -10.4533,10.45331 -24.96,10.45331 h -35.6266 v 35.62661 h -35.62658 z m 35.62658,106.66649 h 17.7067 q 7.4666,0 12.5866,-5.11999 5.3333,-5.33332 5.3333,-12.79998 v -53.33324 q 0,-7.25333 -5.3333,-12.37332 -5.12,-5.33332 -12.5866,-5.33332 -7.2534,0 -12.5867,5.33332 -5.12,5.11999 -5.12,12.37332 z"
           style="font-family:Silom;-inkscape-font-specification:Silom"
           id="path118" />
        <path
           d="m 1232.1154,766.05029 h -35.4133 v -88.95985 q 0,-7.25333 -5.3333,-12.37332 -5.12,-5.33332 -12.5867,-5.33332 -7.2533,0 -12.5866,5.33332 -5.12,5.11999 -5.12,12.37332 v 88.95985 h -35.6266 V 641.67716 h 35.6266 v 17.70664 q 1.0667,-8.95999 5.5467,-13.22665 4.4799,-4.47999 12.1599,-4.47999 h 17.92 q 18.1333,0 26.6666,12.58664 4.2667,-6.39998 10.88,-9.38665 6.6133,-3.19999 15.7867,-3.19999 h 17.7066 q 14.5066,0 24.96,10.45331 10.6666,10.45332 10.6666,24.95997 v 88.95985 h -35.6266 v -88.95985 q 0,-7.03999 -5.3333,-12.37332 -5.12,-5.33332 -12.3733,-5.33332 -7.2534,0 -12.5867,5.33332 -5.3333,5.11999 -5.3333,12.37332 z"
           style="font-family:Silom;-inkscape-font-specification:Silom"
           id="path120" />
      </g>
      <g
         aria-label="Meta  Package  Manager"
         id="text14169"
         style="font-size:37.3333px;line-height:1.25;font-family:Silom;-inkscape-font-specification:Silom;letter-spacing:2px;fill:#534d73">
        <path
           d="m 771.28537,859.99121 v -27.99998 h 1.456 l 13.29065,13.25333 13.25333,-13.25333 h 3.13599 v 27.99998 h -6.23466 v -17.09865 l -10.90132,10.90132 -10.86399,-10.90132 v 17.09865 z"
           id="path141" />
        <path
           d="m 829.28532,850.65789 h -12.43199 v 3.09866 q 0,1.26933 0.896,2.20266 0.93334,0.93334 2.20267,0.93334 h 3.13599 q 3.09867,0 3.09867,-3.136 h 3.09866 q -0.70933,6.23466 -6.19733,6.23466 h -6.23466 q -2.53866,0 -4.40533,-1.82933 -1.82933,-1.82933 -1.82933,-4.40533 v -9.33333 q 0,-2.53866 1.82933,-4.36799 1.86667,-1.82933 4.40533,-1.82933 h 6.23466 q 2.53867,0 4.368,1.82933 1.82933,1.82933 1.82933,4.36799 z m -12.43199,-3.09867 h 6.23466 v -3.136 q 0,-1.26933 -0.93333,-2.16533 -0.896,-0.93333 -2.20266,-0.93333 -1.26933,0 -2.20267,0.93333 -0.896,0.896 -0.896,2.16533 z"
           id="path143" />
        <path
           d="m 840.69215,831.99123 h 6.19733 v 6.23467 h 3.136 v 3.09866 h -3.136 v 12.43199 q 0,1.53066 1.008,2.352 1.008,0.784 1.82933,0.784 h 0.29867 v 3.09866 h -3.136 q -2.53867,0 -4.368,-1.82933 -1.82933,-1.82933 -1.82933,-4.40533 v -12.43199 h -3.136 v -3.09866 h 3.136 z"
           id="path145" />
        <path
           d="m 870.69212,847.55922 v -3.136 q 0,-1.26933 -0.93333,-2.16533 -0.896,-0.93333 -2.20266,-0.93333 h -3.09867 q -2.76266,0 -3.09866,3.09866 h -3.136 q 0.74667,-6.19732 6.23466,-6.19732 h 6.23466 q 2.53867,0 4.368,1.82933 1.82933,1.82933 1.82933,4.36799 v 15.56799 h -6.19733 v -3.09866 q -0.37333,3.09866 -3.13599,3.09866 h -3.09867 q -2.53866,0 -4.40533,-1.82933 -1.82933,-1.82933 -1.82933,-4.40533 v 0 q 0,-2.53866 1.82933,-4.368 1.86667,-1.82933 4.40533,-1.82933 z m 0,3.09867 h -3.13599 q -1.26933,0 -2.20267,0.93333 -0.896,0.896 -0.896,2.16533 v 0 q 0,1.26933 0.896,2.20266 0.93334,0.93334 2.20267,0.93334 1.30666,0 2.20266,-0.93334 0.93333,-0.93333 0.93333,-2.20266 z"
           id="path147" />
        <path
           d="m 907.82694,859.99121 v -27.99998 h 12.46932 q 2.53866,0 4.36799,1.86667 1.82934,1.82933 1.82934,4.368 v 3.09866 q 0,2.53866 -1.82934,4.40533 -1.82933,1.82933 -4.36799,1.82933 h -6.23466 v 12.43199 z m 6.23466,-15.56799 h 3.09866 q 1.30667,0 2.20267,-0.896 0.93333,-0.93333 0.93333,-2.20266 v -3.09866 q 0,-1.30667 -0.93333,-2.20267 -0.896,-0.93333 -2.20267,-0.93333 h -3.09866 z"
           id="path149" />
        <path
           d="m 947.23373,847.55922 v -3.136 q 0,-1.26933 -0.93333,-2.16533 -0.896,-0.93333 -2.20267,-0.93333 h -3.09866 q -2.76267,0 -3.09867,3.09866 h -3.136 q 0.74667,-6.19732 6.23467,-6.19732 h 6.23466 q 2.53866,0 4.36799,1.82933 1.82934,1.82933 1.82934,4.36799 v 15.56799 h -6.19733 v -3.09866 q -0.37334,3.09866 -3.136,3.09866 h -3.09866 q -2.53867,0 -4.40533,-1.82933 -1.82934,-1.82933 -1.82934,-4.40533 v 0 q 0,-2.53866 1.82934,-4.368 1.86666,-1.82933 4.40533,-1.82933 z m 0,3.09867 h -3.136 q -1.26933,0 -2.20266,0.93333 -0.896,0.896 -0.896,2.16533 v 0 q 0,1.26933 0.896,2.20266 0.93333,0.93334 2.20266,0.93334 1.30667,0 2.20267,-0.93334 0.93333,-0.93333 0.93333,-2.20266 z"
           id="path151" />
        <path
           d="m 977.26988,844.42322 h -3.09867 q -0.37333,-3.09866 -3.13599,-3.09866 -1.26934,0 -2.20267,0.93333 -0.896,0.896 -0.896,2.16533 v 9.33333 q 0,1.26933 0.896,2.20266 0.93333,0.93334 2.20267,0.93334 2.76266,0 3.13599,-3.136 h 3.09867 q -0.37334,6.23466 -6.23466,6.23466 h -3.09867 q -2.53866,0 -4.40533,-1.82933 -1.82933,-1.82933 -1.82933,-4.40533 v -9.33333 q 0,-2.53866 1.82933,-4.36799 1.86667,-1.82933 4.40533,-1.82933 h 3.09867 q 5.89866,0 6.23466,6.19732 z"
           id="path153" />
        <path
           d="m 985.50395,859.99121 v -27.99998 h 6.23466 v 13.99999 l 9.33329,-7.76532 h 6.2347 l -13.02932,10.86399 13.02932,10.90132 h -6.2347 l -9.33329,-7.76533 v 7.76533 z"
           id="path155" />
        <path
           d="m 1024.9108,847.55922 v -3.136 q 0,-1.26933 -0.9334,-2.16533 -0.896,-0.93333 -2.2026,-0.93333 h -3.0987 q -2.7627,0 -3.0987,3.09866 h -3.136 q 0.7467,-6.19732 6.2347,-6.19732 h 6.2347 q 2.5386,0 4.368,1.82933 1.8293,1.82933 1.8293,4.36799 v 15.56799 h -6.1973 v -3.09866 q -0.3734,3.09866 -3.136,3.09866 h -3.0987 q -2.5387,0 -4.4053,-1.82933 -1.8294,-1.82933 -1.8294,-4.40533 v 0 q 0,-2.53866 1.8294,-4.368 1.8666,-1.82933 4.4053,-1.82933 z m 0,3.09867 h -3.136 q -1.2694,0 -2.2027,0.93333 -0.896,0.896 -0.896,2.16533 v 0 q 0,1.26933 0.896,2.20266 0.9333,0.93334 2.2027,0.93334 1.3066,0 2.2026,-0.93334 0.9334,-0.93333 0.9334,-2.20266 z"
           id="path157" />
        <path
           d="m 1058.0456,838.2259 v 24.86397 q 0,2.53867 -1.8294,4.368 -1.8293,1.86667 -4.368,1.86667 h -6.2346 q -5.488,0 -6.2347,-6.23467 h 3.136 q 0.224,3.136 3.0987,3.136 h 3.0986 q 1.3067,0 2.2027,-0.93333 0.9333,-0.896 0.9333,-2.20267 v -6.19732 q -0.3733,3.09866 -3.136,3.09866 h -3.0986 q -2.5387,0 -4.4054,-1.82933 -1.8293,-1.82933 -1.8293,-4.40533 v -9.33333 q 0,-2.53866 1.8293,-4.36799 1.8667,-1.82933 4.4054,-1.82933 z m -6.1974,3.09866 h -3.136 q -1.2693,0 -2.2026,0.93333 -0.896,0.896 -0.896,2.16533 v 9.33333 q 0,1.26933 0.896,2.20266 0.9333,0.93334 2.2026,0.93334 1.3067,0 2.2027,-0.93334 0.9333,-0.93333 0.9333,-2.20266 z"
           id="path159" />
        <path
           d="m 1084.983,850.65789 h -12.432 v 3.09866 q 0,1.26933 0.896,2.20266 0.9334,0.93334 2.2027,0.93334 h 3.136 q 3.0987,0 3.0987,-3.136 h 3.0986 q -0.7093,6.23466 -6.1973,6.23466 h -6.2347 q -2.5386,0 -4.4053,-1.82933 -1.8293,-1.82933 -1.8293,-4.40533 v -9.33333 q 0,-2.53866 1.8293,-4.36799 1.8667,-1.82933 4.4053,-1.82933 h 6.2347 q 2.5387,0 4.368,1.82933 1.8293,1.82933 1.8293,4.36799 z m -12.432,-3.09867 h 6.2347 v -3.136 q 0,-1.26933 -0.9333,-2.16533 -0.896,-0.93333 -2.2027,-0.93333 -1.2693,0 -2.2027,0.93333 -0.896,0.896 -0.896,2.16533 z"
           id="path161" />
        <path
           d="m 1115.9205,859.99121 v -27.99998 h 1.456 l 13.2907,13.25333 13.2533,-13.25333 h 3.136 v 27.99998 h -6.2347 v -17.09865 l -10.9013,10.90132 -10.864,-10.90132 v 17.09865 z"
           id="path163" />
        <path
           d="m 1167.7231,847.55922 v -3.136 q 0,-1.26933 -0.9333,-2.16533 -0.896,-0.93333 -2.2027,-0.93333 h -3.0986 q -2.7627,0 -3.0987,3.09866 h -3.136 q 0.7467,-6.19732 6.2347,-6.19732 h 6.2346 q 2.5387,0 4.368,1.82933 1.8294,1.82933 1.8294,4.36799 v 15.56799 h -6.1974 v -3.09866 q -0.3733,3.09866 -3.136,3.09866 h -3.0986 q -2.5387,0 -4.4054,-1.82933 -1.8293,-1.82933 -1.8293,-4.40533 v 0 q 0,-2.53866 1.8293,-4.368 1.8667,-1.82933 4.4054,-1.82933 z m 0,3.09867 h -3.136 q -1.2693,0 -2.2026,0.93333 -0.896,0.896 -0.896,2.16533 v 0 q 0,1.26933 0.896,2.20266 0.9333,0.93334 2.2026,0.93334 1.3067,0 2.2027,-0.93334 0.9333,-0.93333 0.9333,-2.20266 z"
           id="path165" />
        <path
           d="M 1182.1913,859.99121 V 838.2259 h 6.2347 v 3.09866 q 0.1866,-1.568 0.9706,-2.31466 0.784,-0.784 2.128,-0.784 h 3.136 q 2.5387,0 4.368,1.82933 1.8294,1.82933 1.8294,4.36799 v 15.56799 h -6.1974 v -15.56799 q 0,-1.26933 -0.9333,-2.16533 -0.896,-0.93333 -2.2027,-0.93333 -1.2693,0 -2.2026,0.93333 -0.896,0.896 -0.896,2.16533 v 15.56799 z"
           id="path167" />
        <path
           d="m 1221.5981,847.55922 v -3.136 q 0,-1.26933 -0.9333,-2.16533 -0.896,-0.93333 -2.2027,-0.93333 h -3.0987 q -2.7626,0 -3.0986,3.09866 h -3.136 q 0.7467,-6.19732 6.2346,-6.19732 h 6.2347 q 2.5387,0 4.368,1.82933 1.8293,1.82933 1.8293,4.36799 v 15.56799 h -6.1973 v -3.09866 q -0.3733,3.09866 -3.136,3.09866 h -3.0987 q -2.5386,0 -4.4053,-1.82933 -1.8293,-1.82933 -1.8293,-4.40533 v 0 q 0,-2.53866 1.8293,-4.368 1.8667,-1.82933 4.4053,-1.82933 z m 0,3.09867 h -3.136 q -1.2693,0 -2.2027,0.93333 -0.896,0.896 -0.896,2.16533 v 0 q 0,1.26933 0.896,2.20266 0.9334,0.93334 2.2027,0.93334 1.3067,0 2.2027,-0.93334 0.9333,-0.93333 0.9333,-2.20266 z"
           id="path169" />
        <path
           d="m 1254.7329,838.2259 v 24.86397 q 0,2.53867 -1.8293,4.368 -1.8294,1.86667 -4.368,1.86667 h -6.2347 q -5.488,0 -6.2346,-6.23467 h 3.136 q 0.224,3.136 3.0986,3.136 h 3.0987 q 1.3066,0 2.2026,-0.93333 0.9334,-0.896 0.9334,-2.20267 v -6.19732 q -0.3734,3.09866 -3.136,3.09866 h -3.0987 q -2.5386,0 -4.4053,-1.82933 -1.8293,-1.82933 -1.8293,-4.40533 v -9.33333 q 0,-2.53866 1.8293,-4.36799 1.8667,-1.82933 4.4053,-1.82933 z m -6.1973,3.09866 h -3.136 q -1.2694,0 -2.2027,0.93333 -0.896,0.896 -0.896,2.16533 v 9.33333 q 0,1.26933 0.896,2.20266 0.9333,0.93334 2.2027,0.93334 1.3066,0 2.2026,-0.93334 0.9334,-0.93333 0.9334,-2.20266 z"
           id="path171" />
        <path
           d="m 1281.6704,850.65789 h -12.432 v 3.09866 q 0,1.26933 0.896,2.20266 0.9333,0.93334 2.2027,0.93334 h 3.136 q 3.0986,0 3.0986,-3.136 h 3.0987 q -0.7093,6.23466 -6.1973,6.23466 h -6.2347 q -2.5386,0 -4.4053,-1.82933 -1.8293,-1.82933 -1.8293,-4.40533 v -9.33333 q 0,-2.53866 1.8293,-4.36799 1.8667,-1.82933 4.4053,-1.82933 h 6.2347 q 2.5386,0 4.368,1.82933 1.8293,1.82933 1.8293,4.36799 z m -12.432,-3.09867 h 6.2347 v -3.136 q 0,-1.26933 -0.9334,-2.16533 -0.896,-0.93333 -2.2026,-0.93333 -1.2694,0 -2.2027,0.93333 -0.896,0.896 -0.896,2.16533 z"
           id="path173" />
        <path
           d="m 1296.1759,859.99121 h -6.2347 V 838.2259 h 6.2347 v 6.19732 q 0.3733,-3.09866 1.904,-4.62933 1.568,-1.56799 4.3306,-1.56799 h 3.0987 v 6.19732 h -6.2347 q -1.2693,0 -2.2026,0.93334 -0.896,0.896 -0.896,2.20266 z"
           id="path175" />
      </g>
    </g>
  </g>
  <metadata
     id="metadata152">
    <rdf:RDF>
      <cc:Work>
        <dc:format>image/svg+xml</dc:format>
        <dc:type
           rdf:resource="http://purl.org/dc/dcmitype/StillImage" />
      </cc:Work>
    </rdf:RDF>
  </metadata>
</svg>
